<svg xmlns="http://www.w3.org/2000/svg" id="Layer_3" viewBox="0 0 200 200"><path d="m114.24,98.37c2.57-3.16,4.11-7.19,4.11-11.57,0-10.15-8.23-18.37-18.38-18.37s-18.38,8.22-18.38,18.37c0,4.38,1.54,8.41,4.11,11.57-7.23,3.6-12.91,9.86-15.75,17.49-.64,1.7-1.14,3.47-1.48,5.3,1.06,1.56,2.23,3.04,3.5,4.42,6.95,7.56,16.92,12.3,28,12.3s21.05-4.74,28-12.3c1.27-1.38,2.44-2.86,3.5-4.42-.34-1.83-.84-3.6-1.48-5.3-2.84-7.63-8.52-13.89-15.75-17.49Zm-28.65-11.57c0-7.92,6.45-14.37,14.38-14.37s14.38,6.45,14.38,14.37c0,3.86-1.52,7.36-4.01,9.94-1.17,1.23-2.56,2.25-4.1,3-1.9.92-4.03,1.44-6.27,1.44s-4.37-.52-6.27-1.44c-1.54-.75-2.93-1.77-4.1-3-2.49-2.58-4.01-6.08-4.01-9.94Zm14.38,47.08c-11.11,0-21-5.35-27.21-13.62,2.13-8.49,8.13-15.46,16.01-18.89,3.1,2.39,6.98,3.81,11.2,3.81s8.1-1.42,11.2-3.81c7.88,3.43,13.88,10.4,16.01,18.89-6.21,8.27-16.1,13.62-27.21,13.62Z" fill="#ff6c2f" stroke-width="0"></path><path d="m170.65,149.87c-4.99,0-9.57,1.76-13.17,4.68l-20.53-20.53c-.1-.1-.2-.18-.32-.26,8.25-8.91,13.3-20.82,13.3-33.93s-4.99-24.88-13.15-33.78c.05-.04.11-.08.16-.13l20.66-20.66c3.57,2.87,8.1,4.59,13.04,4.59,11.53,0,20.88-9.35,20.88-20.88s-9.35-20.87-20.88-20.87-20.88,9.35-20.88,20.87c0,5.15,1.87,9.86,4.96,13.5l-20.62,20.62s-.08.1-.12.15c-8.92-8.3-20.88-13.39-34.03-13.39s-25,5.04-33.91,13.27c-.01-.01-.02-.02-.03-.04l-20.76-20.76s-.05-.04-.07-.06c2.98-3.61,4.77-8.24,4.77-13.29,0-11.53-9.35-20.87-20.88-20.87S8.22,17.46,8.22,28.99s9.35,20.88,20.88,20.88c5.05,0,9.68-1.79,13.29-4.77.02.02.04.05.06.07l20.76,20.76s.03.02.04.03c-8.22,8.91-13.24,20.8-13.24,33.88s5.09,25.1,13.4,34.03c-.06.05-.13.1-.19.16l-20.72,20.72c-3.63-3.04-8.29-4.87-13.39-4.87-11.53,0-20.88,9.35-20.88,20.87s9.35,20.88,20.88,20.88,20.88-9.35,20.88-20.88c0-4.99-1.76-9.56-4.67-13.15l20.74-20.74c.06-.06.1-.12.15-.19,1.48,1.36,3.04,2.63,4.67,3.81,2.35,1.69,4.86,3.18,7.5,4.44,6.54,3.15,13.87,4.91,21.61,4.91s15.07-1.76,21.61-4.91c2.64-1.26,5.15-2.75,7.5-4.44,1.68-1.21,3.28-2.52,4.79-3.92.07.11.16.21.25.31l20.51,20.51c-3.03,3.62-4.86,8.29-4.86,13.38,0,11.53,9.35,20.88,20.88,20.88s20.88-9.35,20.88-20.88-9.35-20.87-20.88-20.87Zm0-137.75c9.3,0,16.88,7.57,16.88,16.87s-7.57,16.88-16.88,16.88-16.88-7.57-16.88-16.88,7.57-16.87,16.88-16.87ZM29.09,45.87c-9.3,0-16.88-7.57-16.88-16.88s7.57-16.87,16.88-16.87,16.88,7.57,16.88,16.87-7.57,16.88-16.88,16.88Zm0,141.75c-9.3,0-16.88-7.57-16.88-16.88s7.57-16.87,16.88-16.87,16.88,7.57,16.88,16.87-7.57,16.88-16.88,16.88Zm102.29-54.25c-1.72,1.62-3.57,3.1-5.52,4.45-7.38,5.04-16.3,8-25.9,8s-18.52-2.96-25.9-8c-1.95-1.35-3.8-2.83-5.52-4.45-8.95-8.4-14.55-20.32-14.55-33.53,0-25.35,20.62-45.97,45.97-45.97s45.97,20.62,45.97,45.97c0,13.21-5.6,25.13-14.55,33.53Zm39.26,54.25c-9.3,0-16.88-7.57-16.88-16.88s7.57-16.87,16.88-16.87,16.88,7.57,16.88,16.87-7.57,16.88-16.88,16.88Z" fill="#ff6c2f" stroke-width="0"></path><path d="m4.53,110.32c-.11-1.03-.98-1.79-1.99-1.79-.07,0-.14,0-.22.01-1.1.12-1.89,1.1-1.77,2.2,0,.06.01.11.02.17,0,0,0,0,0,0,0,0,0,.02,0,.03,0,0,0,0,0,0,0,0,0,.02,0,.03,0,0,0,0,0,0,0,0,0,.02,0,.03,0,0,0,.01,0,.02,0,0,0,0,0,.02,0,0,0,.01,0,.02,0,0,0,0,0,.01,0,0,0,.02,0,.02h0s0,.04,0,.06h0s0,.02,0,.03c0,0,0,0,0,.01,0,0,0,.01,0,.02,0,0,0,.01,0,.01,0,0,0,.01,0,.02,0,0,0,.02,0,.03,0,0,0,.01,0,.02,0,0,0,.01,0,.02,0,0,0,.01,0,.02,0,0,0,.02,0,.02,0,0,0,0,0,0,.01.12.03.23.04.36.12,1.01.99,1.76,1.98,1.76.08,0,.16,0,.24-.01,1.1-.13,1.88-1.12,1.75-2.22-.04-.32-.07-.64-.11-.95Z" fill="#ff6c2f" stroke-width="0"></path><path d="m9.09,130.89c-.1-.3-.21-.61-.31-.91-.28-.84-1.06-1.37-1.9-1.37-.21,0-.42.03-.63.1-1.05.35-1.62,1.47-1.27,2.52.11.32.21.64.32.96.29.83,1.06,1.35,1.89,1.35.21,0,.43-.03.65-.11,1.05-.36,1.6-1.49,1.25-2.54Z" fill="#ff6c2f" stroke-width="0"></path><path d="m5.75,72.72c.2.06.4.09.59.09.85,0,1.64-.55,1.91-1.41.09-.31.19-.61.29-.92.34-1.05-.24-2.18-1.29-2.52-.2-.07-.41-.1-.61-.1-.85,0-1.63.54-1.9,1.39-.02.08-.05.15-.07.23,0,0,0,0,0,0,0,0,0,.01,0,.02,0,0,0,0,0,.01,0,0,0,.01,0,.02,0,0,0,0,0,.01v.02s-.01.01-.01.02c0,0,0,.02,0,.03,0,0,0,.01,0,.02,0,0,0,.01,0,.02,0,0,0,0,0,.01,0,0,0,.01,0,.02,0,0,0,0,0,.01,0,0,0,.01,0,.02,0,0,0,0,0,.01,0,.03-.02.05-.02.08,0,0,0,0,0,0,0,0,0,.01,0,.02,0,0,0,0,0,.01,0,0,0,.01,0,.02,0,0,0,.01,0,.02,0,0,0,0,0,.01-.03.1-.06.21-.1.31-.32,1.05.27,2.17,1.32,2.5Z" fill="#ff6c2f" stroke-width="0"></path><path d="m59.11,12.76c.28,0,.56-.06.83-.18.29-.13.58-.27.87-.4,1.01-.45,1.46-1.63,1.01-2.64-.33-.74-1.06-1.18-1.83-1.18-.27,0-.55.06-.82.17-.15.07-.3.14-.46.2h0s-.04.02-.06.03h0s-.03.01-.05.02c0,0-.01,0-.02,0-.01,0-.03.01-.04.02,0,0-.01,0-.02.01,0,0-.01,0-.02,0-.01,0-.03.01-.05.02,0,0,0,0-.01,0-.03.02-.06.03-.1.05,0,0,0,0,0,0-.03.01-.06.03-.09.04-1,.46-1.44,1.65-.98,2.65.34.73,1.06,1.17,1.82,1.17Z" fill="#ff6c2f" stroke-width="0"></path><path d="m117.53,5.47c.31.06.63.12.94.18.13.03.26.04.39.04.94,0,1.77-.66,1.96-1.62.21-1.08-.49-2.13-1.57-2.34-.33-.06-.66-.13-1-.19-.12-.02-.24-.03-.36-.03-.95,0-1.79.67-1.96,1.64-.2,1.09.52,2.13,1.6,2.33Z" fill="#ff6c2f" stroke-width="0"></path><path d="m190.59,68.11c.11.3.21.6.31.91.28.83,1.06,1.36,1.89,1.36.21,0,.43-.03.64-.11,1.04-.35,1.6-1.48,1.25-2.53-.07-.21-.15-.43-.22-.64,0,0,0,0,0,0,0,0,0-.02-.01-.03,0,0,0,0,0-.01,0,0,0,0,0-.01-.03-.09-.06-.17-.09-.26-.29-.82-1.06-1.34-1.89-1.34-.22,0-.44.04-.66.11-1.04.37-1.59,1.51-1.23,2.55Z" fill="#ff6c2f" stroke-width="0"></path><path d="m195.32,88.65c.12,1.02.98,1.77,1.98,1.77.08,0,.16,0,.23-.01,1.1-.13,1.88-1.12,1.76-2.22-.04-.33-.08-.66-.12-.99-.13-1.01-.99-1.75-1.98-1.75-.08,0-.17,0-.25.02-1.1.14-1.87,1.14-1.73,2.24.04.32.08.63.12.95Z" fill="#ff6c2f" stroke-width="0"></path><path d="m136.82,11.19c.3.12.59.25.88.37.26.11.52.16.79.16.78,0,1.51-.45,1.84-1.21.43-1.02-.04-2.19-1.05-2.63,0,0,0,0,0,0-.01,0-.02,0-.03-.01-.29-.13-.59-.25-.88-.37-.25-.1-.51-.15-.76-.15-.78,0-1.53.46-1.85,1.23-.42,1.02.06,2.19,1.08,2.61Z" fill="#ff6c2f" stroke-width="0"></path><path d="m78.57,6.21c.14,0,.29-.02.44-.05.31-.07.62-.14.94-.2,1.08-.23,1.77-1.29,1.54-2.37-.2-.94-1.03-1.59-1.95-1.59-.14,0-.28.01-.42.04-.14.03-.28.06-.42.09,0,0,0,0-.01,0,0,0-.01,0-.02,0-.18.04-.36.08-.53.12-1.07.24-1.75,1.31-1.51,2.39.21.93,1.03,1.57,1.95,1.57Z" fill="#ff6c2f" stroke-width="0"></path><path d="m98.98,3.87s.01,0,.02,0c.32,0,.64,0,.96,0,1.1,0,2-.9,2-2s-.9-2-2-2h-.09s-.02,0-.03,0h0s-.02,0-.04,0h-.01s-.02,0-.03,0h-.01s-.02,0-.02,0c0,0,0,0-.01,0-.01,0-.02,0-.03,0,0,0-.01,0-.02,0s-.01,0-.02,0c0,0-.01,0-.02,0,0,0,0,0-.01,0,0,0-.02,0-.02,0h0c-.21,0-.41,0-.62,0-1.1.01-1.99.92-1.98,2.02.01,1.1.9,1.98,2,1.98Z" fill="#ff6c2f" stroke-width="0"></path><path d="m2.19,92.95c.06,0,.12,0,.18,0,1.02,0,1.9-.78,1.99-1.82.03-.32.06-.64.09-.95.11-1.1-.69-2.08-1.79-2.19-.07,0-.14-.01-.2-.01-1.01,0-1.88.77-1.99,1.8-.03.33-.06.66-.09.99-.1,1.1.71,2.07,1.81,2.17Z" fill="#ff6c2f" stroke-width="0"></path><path d="m184.39,149.7c.31.18.65.26.98.26.7,0,1.37-.36,1.74-1.01.02-.03.03-.06.05-.09,0,0,0,0,0,0,0-.01,0-.02.02-.03,0-.01.01-.03.02-.04,0,0,0-.01,0-.01,0-.02.02-.03.03-.05h0s.02-.03.03-.05c0,0,0,0,0,0,0-.02.02-.03.03-.05,0,0,0,0,0,0,0-.01.02-.03.02-.04,0,0,0,0,0,0,0-.01.02-.03.02-.04,0,0,0-.01.01-.02v-.03s.03-.03.04-.04c0,0,0,0,0-.01.04-.07.08-.15.13-.23,0,0,0,0,0,0,0-.01.01-.02.02-.03,0,0,.01-.02.02-.03,0,0,0-.01.01-.02,0-.01.02-.03.02-.04.53-.97.18-2.18-.79-2.72-.31-.17-.64-.25-.96-.25-.71,0-1.39.37-1.75,1.03-.15.28-.31.56-.47.84-.54.96-.2,2.18.76,2.72Z" fill="#ff6c2f" stroke-width="0"></path><path d="m185.21,51.45c.95-.57,1.26-1.79.69-2.74-.13-.21-.26-.43-.38-.64h0s-.02-.04-.03-.05c0,0,0-.01-.01-.02,0,0,0-.01,0-.02-.03-.04-.05-.09-.08-.13-.38-.61-1.03-.95-1.71-.95-.35,0-.71.09-1.04.29-.94.58-1.24,1.81-.67,2.75.17.27.33.55.5.82.37.63,1.04.98,1.72.98.35,0,.7-.09,1.02-.28Z" fill="#ff6c2f" stroke-width="0"></path><path d="m14.33,147.6c-.95.56-1.27,1.78-.72,2.73.07.12.14.23.2.35,0,0,0,.01.01.02,0,.01.01.02.02.03l.02.03s0,.01,0,.02c0,.02.02.03.03.05h0c.07.13.15.25.22.38.38.63,1.04.97,1.72.97.35,0,.7-.09,1.03-.28.95-.57,1.26-1.8.69-2.74-.16-.27-.33-.55-.49-.83-.37-.64-1.04-.99-1.73-.99-.34,0-.69.09-1.01.27Z" fill="#ff6c2f" stroke-width="0"></path><path d="m197.8,106c-.06,0-.11,0-.17,0-1.03,0-1.91.79-1.99,1.84-.03.32-.05.64-.08.96-.1,1.1.71,2.07,1.81,2.17.06,0,.12,0,.19,0,1.02,0,1.89-.78,1.99-1.82.01-.15.03-.3.04-.45,0,0,0-.01,0-.02,0,0,0,0,0-.01,0,0,0-.02,0-.03,0,0,0,0,0,0,.01-.16.03-.32.04-.48.09-1.1-.73-2.06-1.83-2.15Z" fill="#ff6c2f" stroke-width="0"></path><path d="m194.39,126.26c-.19-.06-.39-.09-.58-.09-.86,0-1.65.56-1.91,1.42-.09.31-.19.61-.28.92-.33,1.05.26,2.18,1.31,2.51.2.06.4.09.6.09.85,0,1.64-.55,1.91-1.4.1-.32.2-.64.29-.96.32-1.06-.28-2.17-1.34-2.49Z" fill="#ff6c2f" stroke-width="0"></path><path d="m62.41,188.24c-.29-.13-.59-.25-.88-.38-.26-.11-.53-.17-.8-.17-.77,0-1.5.45-1.83,1.2-.44,1.01.02,2.19,1.03,2.63.02,0,.04.02.06.02,0,0,0,0,0,0,.02,0,.03.02.05.02,0,0,0,0,.01,0,.01,0,.02.01.04.02,0,0,.02,0,.03.01.01,0,.02,0,.03.01.01,0,.02,0,.03.01,0,0,0,0,.01,0,.02,0,.04.02.05.02,0,0,0,0,0,0,.2.09.4.17.6.26.25.11.52.16.78.16.78,0,1.52-.46,1.84-1.22.43-1.02-.04-2.19-1.06-2.62Z" fill="#ff6c2f" stroke-width="0"></path><path d="m81.64,194.12c-.31-.06-.63-.12-.94-.19-.13-.03-.27-.04-.4-.04-.93,0-1.76.65-1.96,1.6-.22,1.08.47,2.13,1.55,2.36.17.04.35.07.52.11.16.03.31.06.47.09.13.02.26.04.38.04.94,0,1.78-.66,1.96-1.62.21-1.08-.5-2.13-1.58-2.34Z" fill="#ff6c2f" stroke-width="0"></path><path d="m15.95,49.35c-.31-.18-.66-.27-1-.27-.69,0-1.36.36-1.73,1-.03.04-.05.09-.08.13h0s-.02.04-.03.06c0,0,0,0,0,.01,0,0-.01.02-.02.03,0,.01-.01.02-.02.04,0,0,0,.01-.01.02,0,.01-.01.02-.02.04,0,0,0,0,0,.01,0,.02-.02.03-.03.05,0,0,0,0,0,0-.09.16-.18.32-.28.49-.54.96-.2,2.18.76,2.72.31.17.65.26.98.26.7,0,1.38-.37,1.75-1.02.16-.28.31-.56.47-.83.55-.96.22-2.18-.74-2.73Z" fill="#ff6c2f" stroke-width="0"></path><path d="m101.74,195.85s-.02,0-.04,0c-.32,0-.64,0-.96.01-1.1,0-1.99.91-1.98,2.02,0,1.1.9,1.98,2,1.98,0,0,.01,0,.02,0,.16,0,.31,0,.47,0h.03s0,0,0,0c0,0,.02,0,.02,0,.01,0,.02,0,.03,0,0,0,0,0,0,0,.01,0,.02,0,.04,0h0c.13,0,.27,0,.4,0,1.1-.02,1.98-.93,1.96-2.04-.02-1.09-.91-1.96-2-1.96Z" fill="#ff6c2f" stroke-width="0"></path><path d="m141.54,186.64c-.28,0-.57.06-.85.19-.29.14-.58.27-.87.4-1,.46-1.45,1.65-.99,2.65.34.74,1.06,1.17,1.82,1.17.28,0,.56-.06.83-.18.03-.01.06-.03.09-.04,0,0,0,0,.01,0,.02,0,.04-.02.06-.03,0,0,0,0,0,0,0,0,.02,0,.03-.01,0,0,.01,0,.02,0,.02,0,.03-.02.05-.02,0,0,0,0,.01,0,.18-.08.36-.17.54-.25.01,0,.02,0,.03-.01,0,0,.01,0,.02,0,.02,0,.03-.02.05-.02,1-.47,1.43-1.66.96-2.66-.34-.73-1.06-1.15-1.81-1.15Z" fill="#ff6c2f" stroke-width="0"></path><path d="m122.13,193.35c-.15,0-.3.02-.45.05-.31.07-.62.14-.94.21-1.08.24-1.76,1.31-1.52,2.38.21.93,1.03,1.57,1.95,1.57.14,0,.28-.02.43-.05.08-.02.15-.03.23-.05h0s.02,0,.02,0c0,0,.01,0,.02,0,0,0,0,0,.01,0,.23-.05.46-.1.69-.16,1.08-.25,1.75-1.32,1.5-2.4-.21-.92-1.04-1.55-1.95-1.55Z" fill="#ff6c2f" stroke-width="0"></path></svg>