<svg xmlns="http://www.w3.org/2000/svg" id="Layer_1" viewBox="0 0 15 14"><defs><style>.cls-1{fill:#d6d6d6;fill-rule:evenodd;}</style></defs><g id="Page-1"><g id="Artboard-2"><path id="_" class="cls-1" d="m13.4199,3.5241c-1.7836.8772-2.6754,1.9079-2.6754,3.0921.7602.0877,1.3889.3984,1.886.932s.7456,1.1513.7456,1.8531c0,.7456-.2412,1.3743-.7237,1.886s-1.0892.7675-1.8202.7675c-.8187,0-1.5278-.3326-2.1272-.9978s-.8991-1.4729-.8991-2.4232c0-2.8509,1.5935-5.0804,4.7807-6.6886l.8333,1.5789Zm-6.4223,0c-1.7982.8772-2.6974,1.9079-2.6974,3.0921.7749.0877,1.4108.3984,1.9079.932s.7456,1.1513.7456,1.8531c0,.7456-.2449,1.3743-.7346,1.886s-1.1001.7675-1.8311.7675c-.8187,0-1.5241-.3326-2.1162-.9978s-.8882-1.4729-.8882-2.4232c0-2.8509,1.5862-5.0804,4.7587-6.6886l.8553,1.5789Z"></path></g></g></svg>