<svg xmlns="http://www.w3.org/2000/svg" id="Layer_3" viewBox="0 0 200 200"><path d="m155.17,146.06h-3.23v-67.52h10.86c3.25,0,5.11-3.72,3.15-6.32l-14.77-19.6c-.74-.99-1.91-1.57-3.15-1.57h-4.27v-11.48c0-1.85-1.81-3.24-4.21-3.24h-18.82c-3.98-7.41-11.81-12.46-20.81-12.46s-16.83,5.05-20.8,12.46h-18.8c-2.39,0-4.2,1.39-4.2,3.24v11.48h-4.15c-1.24,0-2.41.58-3.15,1.57l-14.77,19.6c-1.96,2.6-.1,6.32,3.15,6.32h10.74v67.52h-3.26c-4.27,0-8.12,1.73-10.92,4.53-.26.26-.51.53-.76.81-.24.29-.48.57-.7.87-.3.4-.58.81-.83,1.24-.27.42-.5.86-.72,1.3-.21.45-.41.92-.58,1.39-.18.48-.33.96-.45,1.45-.32,1.24-.49,2.53-.49,3.86v4.08c0,2.86,2.32,5.18,5.18,5.18h131.02c2.86,0,5.19-2.32,5.19-5.18v-4.08c0-8.53-6.92-15.45-15.45-15.45Zm-15.62-105.73c.08,0,.15,0,.21.01v10.71h-16.52c.04-.19.06-.39.09-.59.13-.98.19-1.98.19-2.99,0-2.49-.38-4.89-1.1-7.14h17.13Zm-57.54,15.07c-.05-.12-.1-.23-.14-.35-.27-.6-.49-1.21-.68-1.84,1.36-.55,2.65-1.27,3.83-2.16,1.34-.99,2.54-2.18,3.56-3.54.02-.03.05-.07.08-.1.23,1.35.78,2.59,1.58,3.64,1.56,2.07,4.05,3.41,6.83,3.41h.13c3.68,0,7.25-1.23,10.18-3.41,1.33-.99,2.53-2.18,3.54-3.54.03-.03.05-.07.08-.1.23,1.35.78,2.59,1.59,3.64,1.33,1.78,3.36,3.01,5.67,3.32-.09.23-.18.46-.28.68-.04.12-.09.23-.14.35-.64,1.43-1.44,2.77-2.38,4-3.59,4.65-9.22,7.66-15.54,7.66s-11.95-3.01-15.53-7.66c-.94-1.23-1.74-2.57-2.38-4Zm17.91-27.53c6.67,0,12.57,3.35,16.1,8.46.46.64.86,1.31,1.23,2,.34.65.65,1.31.92,2,.87,2.21,1.35,4.62,1.35,7.14,0,1.01-.08,2.01-.23,2.98-2.41-.06-4.39-1.99-4.41-4.41-.02-1.76.98-3.28,2.43-4.02.07-.04.06-.14-.02-.16-.76-.22-1.57-.33-2.41-.33-2.93,0-5.53,1.41-7.16,3.59-2.49,3.33-6.36,5.34-10.52,5.34h-.13c-2.46,0-4.51-1.96-4.53-4.42-.02-1.76.97-3.28,2.43-4.02.07-.04.06-.14-.02-.16-.77-.22-1.58-.33-2.41-.33-2.93,0-5.54,1.41-7.17,3.59-1.32,1.77-3.03,3.16-4.96,4.08-.05-.57-.08-1.15-.08-1.73,0-2.52.48-4.93,1.35-7.14.27-.69.58-1.35.92-2,.37-.69.77-1.36,1.23-2,3.53-5.11,9.42-8.46,16.09-8.46Zm-39.8,12.47c.06-.01.13-.01.2-.01h17.11c-.72,2.25-1.1,4.65-1.1,7.14,0,.98.06,1.94.18,2.88.03.23.06.47.1.7h-16.49v-10.71Zm-8.15,14.71h25.61c.51,1.52,1.19,2.98,2,4.35,4.09,6.98,11.67,11.66,20.34,11.66s16.26-4.68,20.35-11.66c.81-1.37,1.48-2.82,2-4.35h25.74l14.68,19.49H37.31l14.66-19.49Zm-.03,23.49h96v67.52h-21.38v-39.84c0-3.4-2.76-6.16-6.16-6.16h-18.69s-4,0-4,0h0s-18.26,0-18.26,0c-3.41,0-6.16,2.76-6.16,6.16v39.84h-21.35v-67.52Zm25.35,63.52v-35.84c0-1.19.96-2.16,2.16-2.16h18.26v41.95h-20.42v-3.95Zm45.27,0v3.95h-20.85v-41.95h18.69c1.19,0,2.16.97,2.16,2.16v35.84Zm-77.88,8h110.49c4.82,0,8.96,3,10.65,7.23H34.03c1.69-4.23,5.82-7.23,10.65-7.23Zm-10.27,16.71c-.65,0-1.18-.53-1.18-1.18v-4.3h0s133.39,0,133.39,0h0v4.3c0,.65-.54,1.18-1.19,1.18H34.41Z" fill="#ff6c2f" stroke-width="0"></path><path d="m160.2,174.77c-8.97,7.25-19.41,12.98-31.04,16.69-9.5,3.03-19.31,4.57-29.18,4.57-20.21,0-39.61-6.27-56.1-18.13-1.4-1.01-2.77-2.05-4.1-3.13h-5.37c-.3,0-.58,0-.87-.04,18.12,16.09,41.76,25.3,66.44,25.3,10.06,0,20.3-1.54,30.4-4.76,13.8-4.4,25.98-11.52,36.14-20.57-.36.05-.72.07-1.09.07h-5.23Z" fill="#ff6c2f" stroke-width="0"></path><path d="m174.55,166.66c22.79-25.52,31.87-62.08,20.73-97.04C181.72,27.11,142.39-.03,100.03-.03c-10.07,0-20.3,1.53-30.4,4.75C17.01,21.5-12.05,77.76,4.73,130.37c4.39,13.79,11.5,25.96,20.55,36.12-.03-.3-.05-.6-.05-.91v-4.07c0-.39.01-.78.04-1.17h0c-7.4-9.17-13.06-19.68-16.73-31.18C-7.54,78.73,20.41,24.61,70.84,8.54c9.5-3.03,19.32-4.57,29.19-4.57,20.2,0,39.6,6.27,56.09,18.13,16.81,12.09,29.03,28.95,35.34,48.74,10.17,31.9,2.73,65.26-16.88,89.55.03.37.04.74.04,1.12v4.07c0,.36-.02.72-.07,1.08Z" fill="#ff6c2f" stroke-width="0"></path></svg>