<svg xmlns="http://www.w3.org/2000/svg" id="Layer_3" viewBox="0 0 200 200"><path d="m32.86,139.02c-.83-.59-1.83-1.09-3.01-1.5s-2.49-.78-3.95-1.12c-1.16-.29-1.99-.52-2.49-.67-.51-.15-1-.36-1.5-.63-.49-.27-.88-.59-1.16-.97-.28-.37-.42-.82-.42-1.33,0-.84.41-1.55,1.24-2.14.83-.59,1.91-.89,3.26-.89,1.45,0,2.51.27,3.17.82.65.54,1.21,1.3,1.68,2.28.37.68.7,1.16,1.01,1.46.31.3.77.45,1.37.45.65,0,1.2-.25,1.64-.75.44-.49.66-1.05.66-1.67,0-.68-.18-1.38-.53-2.1-.35-.71-.91-1.39-1.67-2.04-.76-.65-1.72-1.18-2.87-1.57-1.16-.39-2.52-.59-4.11-.59-1.98,0-3.7.3-5.16.89-1.47.59-2.59,1.44-3.36,2.54-.78,1.1-1.16,2.36-1.16,3.78,0,1.49.36,2.73,1.1,3.74.73,1,1.72,1.79,2.97,2.37,1.25.58,2.79,1.09,4.65,1.52,1.38.32,2.48.61,3.31.9.83.28,1.5.68,2.02,1.22.52.53.78,1.22.78,2.08,0,1.08-.48,1.98-1.45,2.7-.96.72-2.22,1.08-3.77,1.08-1.12,0-2.03-.18-2.72-.54-.69-.35-1.23-.81-1.61-1.36-.38-.55-.74-1.24-1.06-2.06-.27-.69-.6-1.21-.98-1.56-.38-.35-.85-.53-1.4-.53-.68,0-1.24.23-1.68.68-.43.45-.65.99-.65,1.63,0,1.09.36,2.21,1.09,3.36.74,1.16,1.69,2.08,2.86,2.77,1.65.96,3.75,1.44,6.29,1.44,2.12,0,3.96-.35,5.51-1.05,1.54-.71,2.72-1.68,3.52-2.92.8-1.24,1.2-2.64,1.2-4.2,0-1.3-.23-2.4-.69-3.3-.46-.89-1.11-1.64-1.93-2.22Z" fill="#ff6c2f" stroke-width="0"></path><path d="m63.2,141.87c-.73,0-1.25.21-1.58.64-.33.43-.6.98-.83,1.66-.52,1.44-1.31,2.53-2.34,3.28-1.04.74-2.31,1.11-3.81,1.11-1.38,0-2.59-.32-3.62-.98s-1.83-1.65-2.39-2.98c-.56-1.33-.85-3-.85-5,0-3,.64-5.32,1.91-6.94,1.27-1.63,2.98-2.45,5.13-2.45,1.34,0,2.48.32,3.4.95.92.63,1.72,1.59,2.4,2.87.41.77.78,1.31,1.11,1.63.34.32.84.48,1.51.48.59,0,1.1-.23,1.53-.69.42-.46.63-.98.63-1.58,0-1.09-.44-2.25-1.3-3.47-.87-1.23-2.12-2.26-3.75-3.09-1.63-.83-3.48-1.25-5.57-1.25-1.71,0-3.32.31-4.83.92-1.51.61-2.83,1.49-3.96,2.66-1.12,1.17-1.99,2.57-2.59,4.21-.6,1.64-.91,3.5-.91,5.57,0,1.28.12,2.49.36,3.62.24,1.14.6,2.21,1.09,3.21.48,1,1.06,1.91,1.74,2.72.76.89,1.59,1.61,2.5,2.15.91.55,1.92.95,3.03,1.21,1.12.25,2.35.38,3.71.38,1.79,0,3.36-.29,4.71-.86,1.35-.57,2.46-1.32,3.32-2.24.87-.92,1.51-1.86,1.91-2.81.41-.96.61-1.85.61-2.67,0-.64-.22-1.18-.67-1.61-.44-.44-.98-.65-1.6-.65Z" fill="#ff6c2f" stroke-width="0"></path><path d="m92.87,126.06c-.77,0-1.4.27-1.87.79-.48.53-.71,1.32-.71,2.38v7.38h-11.27v-7.38c0-1.07-.24-1.86-.73-2.38-.49-.53-1.12-.79-1.91-.79s-1.43.27-1.89.79c-.46.53-.69,1.32-.69,2.38v20.3c0,1.05.23,1.85.7,2.38.47.54,1.1.8,1.88.8s1.41-.26,1.9-.79c.49-.53.74-1.32.74-2.39v-8.67h11.27v8.67c0,1.05.23,1.85.7,2.38.47.54,1.09.8,1.88.8s1.41-.26,1.9-.79c.49-.53.74-1.32.74-2.39v-20.3c0-1.07-.25-1.86-.73-2.38-.49-.53-1.13-.79-1.91-.79Z" fill="#ff6c2f" stroke-width="0"></path><path d="m122.93,127.69c-1.91-1.08-4.21-1.63-6.88-1.63-1.97,0-3.73.31-5.27.93-1.55.61-2.86,1.5-3.94,2.66-1.08,1.16-1.9,2.57-2.47,4.22-.57,1.65-.85,3.47-.85,5.45s.27,3.73.82,5.39c.54,1.67,1.35,3.09,2.41,4.28,1.07,1.18,2.4,2.1,3.99,2.75,1.6.65,3.4.97,5.42.97s3.82-.31,5.39-.95c1.57-.63,2.9-1.54,3.98-2.74,1.07-1.19,1.88-2.61,2.42-4.24.54-1.62.81-3.44.81-5.43,0-2.69-.49-5.04-1.48-7.04-.98-2-2.43-3.54-4.35-4.62Zm-.45,16.78c-.67,1.39-1.56,2.42-2.68,3.09-1.11.67-2.34,1-3.68,1-1.04,0-2-.19-2.87-.58-.88-.38-1.65-.97-2.32-1.75-.68-.78-1.2-1.76-1.57-2.94-.37-1.18-.55-2.51-.55-3.97s.18-2.77.55-3.93c.37-1.17.88-2.13,1.51-2.88.64-.75,1.41-1.32,2.29-1.71.88-.39,1.85-.59,2.89-.59,1.47,0,2.76.36,3.9,1.07,1.13.7,2,1.75,2.61,3.13.6,1.39.91,3.02.91,4.91,0,2.04-.33,3.75-.99,5.15Z" fill="#ff6c2f" stroke-width="0"></path><path d="m155.05,127.69c-1.92-1.08-4.21-1.63-6.89-1.63-1.97,0-3.72.31-5.27.93-1.55.61-2.86,1.5-3.94,2.66-1.08,1.16-1.9,2.57-2.47,4.22-.57,1.65-.85,3.47-.85,5.45s.27,3.73.82,5.39c.54,1.67,1.35,3.09,2.41,4.28,1.07,1.18,2.4,2.1,4,2.75,1.59.65,3.39.97,5.41.97s3.83-.31,5.4-.95c1.57-.63,2.89-1.54,3.97-2.74,1.08-1.19,1.89-2.61,2.42-4.24.54-1.62.81-3.44.81-5.43,0-2.69-.49-5.04-1.47-7.04-.99-2-2.44-3.54-4.35-4.62Zm-.46,16.78c-.66,1.39-1.55,2.42-2.67,3.09-1.12.67-2.35,1-3.69,1-1.04,0-2-.19-2.87-.58-.87-.38-1.65-.97-2.32-1.75-.67-.78-1.2-1.76-1.56-2.94-.37-1.18-.56-2.51-.56-3.97s.19-2.77.56-3.93c.36-1.17.87-2.13,1.51-2.88.64-.75,1.4-1.32,2.28-1.71.89-.39,1.85-.59,2.89-.59,1.47,0,2.77.36,3.9,1.07,1.13.7,2,1.75,2.61,3.13.61,1.39.91,3.02.91,4.91,0,2.04-.33,3.75-.99,5.15Z" fill="#ff6c2f" stroke-width="0"></path><path d="m184.63,147.98h-10.58v-18.75c0-1.07-.24-1.86-.73-2.38-.48-.53-1.12-.79-1.9-.79s-1.4.27-1.88.79c-.47.53-.71,1.32-.71,2.38v19.84c0,1.13.25,1.94.75,2.45.5.5,1.31.75,2.45.75h12.6c.86,0,1.51-.19,1.96-.59.44-.39.66-.9.66-1.53s-.22-1.14-.67-1.55c-.45-.41-1.1-.62-1.95-.62Z" fill="#ff6c2f" stroke-width="0"></path><path d="m192.75,114.91h-29.3v-43.27c2.88-.4,4.41-3.82,2.57-6.26l-14.77-19.61c-.74-.99-1.91-1.57-3.15-1.57h-19.18v-10.81l9,4.92c.3.17.63.25.96.25.71,0,1.39-.38,1.76-1.04.53-.97.17-2.18-.8-2.71l-33.66-18.4c-4.11-2.25-9.04-2.27-13.17-.04l-33.64,18.09c-.97.52-1.34,1.74-.81,2.71.52.97,1.73,1.34,2.71.81l10.39-5.59v11.82h-19.61c-1.24,0-2.41.58-3.15,1.57l-14.77,19.61c-1.91,2.54-.18,6.14,2.93,6.3h0v43.23H6.74c-3.67,0-6.67,3-6.67,6.67v36.66c0,3.67,3,6.67,6.67,6.67h27.85c-2.11,1.92-3.69,4.41-4.48,7.23,0,0,0,0,0,0h-.43v2.04c-.11.71-.16,1.43-.16,2.17v4.09c0,2.86,2.32,5.18,5.18,5.18h130.9c2.86,0,5.18-2.32,5.18-5.18v-4.09c0-4.54-1.95-8.61-5.07-11.44h27.04c3.67,0,6.67-3,6.67-6.67v-36.66c0-3.67-3-6.67-6.67-6.67Zm-44.67-66.71l14.68,19.49h-21.24v-1.87c0-2.28-1.1-4.44-2.95-5.78l-16.31-11.84h25.82Zm11.37,23.49v43.22h-17.93v-43.22h17.93Zm-37.57,13.69h-43.2c-2.78,0-5.03,2.26-5.03,5.04v23.3c0,.35.04.7.11,1.03h-10.78v-48.94c0-1,.48-1.95,1.29-2.54l20.58-15.07,5.46-4,7.92-5.8c.54-.4,1.18-.61,1.86-.61s1.31.21,1.85.6l8,5.81,5.51,4,20.77,15.08c.81.59,1.3,1.54,1.3,2.54v48.93h-10.71c.07-.33.11-.68.11-1.03v-23.3c0-2.78-2.26-5.04-5.04-5.04Zm1.04,5.04v23.3c0,.57-.47,1.03-1.04,1.03h-19.81v-25.37h19.81c.57,0,1.04.47,1.04,1.04Zm-24.85-1.04v25.37h-19.39c-.57,0-1.03-.46-1.03-1.03v-23.3c0-.57.46-1.04,1.03-1.04h19.39Zm-3.17-69.5c2.93-1.58,6.43-1.57,9.35.03l20.67,11.3v13h-8.17l-12.46-9.04c-1.26-.91-2.73-1.37-4.2-1.37s-2.97.46-4.22,1.38l-12.33,9.03h-7.89v-13.84s0-.08-.01-.12l19.26-10.36Zm-42.86,28.32h26.04l-16.17,11.84c-1.84,1.34-2.93,3.49-2.93,5.77v1.88h-21.6l14.66-19.49Zm6.94,23.49v43.22h-17.93v-43.22h17.93Zm107.8,108.75c0,.65-.53,1.18-1.18,1.18H34.7c-.65,0-1.18-.53-1.18-1.18v-4.3h133.26v4.3Zm-.8-8.3s0,0,0,0H34.32s0,0,0,0c1.68-4.23,5.81-7.23,10.64-7.23h110.38c4.83,0,8.96,3,10.64,7.23Zm29.44-13.9c0,1.45-1.22,2.67-2.67,2.67H6.74c-1.45,0-2.67-1.22-2.67-2.67v-36.66c0-1.45,1.22-2.67,2.67-2.67h186.01c1.45,0,2.67,1.22,2.67,2.67v36.66Z" fill="#ff6c2f" stroke-width="0"></path><path d="m4.33,111.2c-.42-3.65-.65-7.36-.65-11.13C3.68,47.13,46.75,4.07,99.68,4.07s96,43.07,96,96c0,3.75-.22,7.46-.65,11.1,1.4.31,2.7.89,3.83,1.69.53-4.19.81-8.46.81-12.79C199.68,44.84,154.91.07,99.68.07S-.32,44.84-.32,100.07c0,4.36.28,8.66.82,12.87,1.13-.82,2.42-1.42,3.83-1.74Z" fill="#ff6c2f" stroke-width="0"></path><path d="m99.68,196.07c-12.18,0-23.84-2.29-34.58-6.45h-9.95c13.41,6.68,28.53,10.45,44.53,10.45s31.12-3.76,44.53-10.45h-9.95c-10.73,4.16-22.39,6.45-34.58,6.45Z" fill="#ff6c2f" stroke-width="0"></path></svg>