<svg xmlns="http://www.w3.org/2000/svg" id="Layer_2" viewBox="0 0 2843.1256 518.0782"><defs><style>.cls-1{fill:#ec6b38;fill-rule:evenodd;}</style></defs><g id="Layer_1-2"><path class="cls-1" d="m2563.0303,210.9108h-180.2969c-42.8299,0-76.8288,11.0387-101.9967,32.9686-25.0209,21.9301-40.6223,53.4269-46.9509,94.3432l-8.978,59.167c-5.5928,36.0594.5888,65.2012,18.3974,87.4257,17.809,22.2243,49.1589,33.2629,94.049,33.2629h410.0473c11.3329,0,17.8086-5.4456,19.4277-16.3371l10.7442-70.2054c1.7664-10.8915-3.0908-16.3373-14.4238-16.3373h-388.5584c-14.2767,0-23.8435-3.6794-28.7005-11.0385-4.7099-7.5063-6.1816-17.5146-4.2681-30.4665l4.7096-30.3194c4.2684-27.5229,19.1337-41.3579,44.8904-41.3579h386.2037c10.8915,0,17.2202-5.4457,18.8393-16.3371l9.125-58.4311c1.7662-10.8913-2.7964-16.3371-13.6879-16.3371h-228.5724Zm-2134.1286,0h-60.1972c-10.8914,0-17.2202,5.4458-18.8392,16.3371l-9.1253,58.4311c-1.7662,10.8914,2.7965,16.3371,13.6879,16.3371h83.4518c25.6095,0,36.3537,13.835,32.0856,41.3579l-4.8571,30.3194c-1.9134,12.9519-6.4759,22.9602-13.5407,30.4665-7.0647,7.3591-17.8089,11.0385-32.0854,11.0385H30.9234c-11.333,0-17.956,5.4458-19.5751,16.3373L.3097,501.7411c-1.6191,10.8915,3.0908,16.3371,14.571,16.3371h409.8999c44.8903,0,79.7722-11.0386,104.3515-33.2629,24.7265-22.2245,39.8861-51.3663,45.4791-87.4257l9.2724-59.167c6.4758-40.9163.4414-72.4131-17.809-94.3432-18.2505-21.9299-48.8641-32.9686-91.694-32.9686h-45.4789Zm-282.4409,91.1053h122.7491c10.8914,0,17.073-5.4457,18.8393-16.3371l9.1252-58.4311c1.7661-10.8913-2.7964-16.3371-13.6879-16.3371h-86.6897c-25.6097,0-36.3538-13.8349-31.9384-41.3578l3.8267-25.1682c2.0606-12.8047,1.6189-20.0166,8.6836-27.3756,7.0649-7.3589,17.809-11.1859,32.0856-11.1859h525.8787l-61.9632,395.9178c-1.6191,10.8915,2.9436,16.3371,13.6878,16.3371h80.8026c10.7442,0,17.073-5.4456,18.6919-16.3371l61.9634-395.9178h523.5238c19.2807,0,34.8821,1.6191,46.9509,4.857,12.0689,3.2381,21.1939,8.6839,27.5229,16.3372,6.1816,7.5063,9.8613,17.9561,11.0386,31.0552,1.1773,13.0991.147,26.1983-2.7964,45.479l-9.1254,58.5782h-.2944l-13.0991,84.6293c-1.7661,10.8913,2.7964,16.3371,13.6879,16.3371h79.9196c11.3329,0,17.809-5.4458,19.5751-16.3371l5.5928-35.4706h.147l18.1034-115.8318c5.5928-35.6177,6.4761-65.6429,2.9438-90.3693-3.5326-24.5795-12.3632-44.7431-26.3456-60.3445-14.1293-15.4537-33.8518-26.787-59.1668-33.9986-25.3153-7.2122-56.6648-10.7444-94.0489-10.7444H209.0128c-44.8904,0-79.6251,11.1859-104.3516,33.263-24.5793,22.2245-39.8861,51.3661-45.4789,87.4259l-8.3894,54.0154c-6.476,40.9164-.4416,72.4132,17.8089,94.3432,16.19,19.4279,42.0938,30.3193,77.7118,32.527l.1472.4416ZM2828.251,0c11.3329,0,16.1899,5.4457,14.5711,16.3372l-11.0389,70.3525c-1.7661,10.7444-8.2421,16.1902-19.5751,16.1902h-325.2704c-3.0908,0-6.0346.147-8.9781.147v-.147h-43.4186c-23.5489.147-37.5312,2.502-42.2411,25.7564l-1.4717,8.5369v.4414l-.7359,4.857c-1.7661,10.8912-7.9477,16.3369-18.8392,16.3369h-79.9193c-11.3329,0-16.1902-5.4457-14.4238-16.3369l1.0303-6.7705,1.1773-7.9477c.2944-2.6494.7359-5.2987,1.3247-7.9478v-.1473c6.7704-37.0897,22.2245-65.7899,45.6263-86.2479,25.0205-21.9301,59.0194-32.9687,101.9963-32.9687h51.6609c7.5063-.2944,15.1596-.4417,22.9603-.4417h325.5649Zm-1041.0134,0c10.8915,0,15.454,5.4457,13.8353,16.3372l-30.7611,196.7814h104.3517c11.7744,0,21.6356-.2944,29.7304-1.0303,7.9481-.7359,15.16-2.355,21.4886-4.8569,6.3287-2.5022,12.2162-5.8873,17.809-10.3027,5.7402-4.4155,11.7744-10.1555,18.2505-17.073l153.9516-170.1419c2.9438-3.5322,5.8872-6.0342,8.5366-7.5059,2.6493-1.4721,7.5062-2.2079,14.4237-2.2079h91.694c6.4757,0,10.0083,2.0605,10.4498,6.3289.5888,4.1211-.5889,7.9478-3.5323,11.4801l-172.6438,185.7427c-10.1554,11.333-19.4278,20.8998-27.8173,28.8476-8.3892,7.9479-16.4843,14.8654-24.2847,20.7526,17.3672,11.7745,33.263,29.5834,47.8338,53.2796l121.7189,192.366c1.4717,2.5021,1.6191,6.3288.2944,11.4801-1.1773,5.1514-5.5928,7.8006-12.952,7.8006h-94.7848c-6.3287,0-10.7442-.7359-12.9518-2.2078-2.2079-1.4717-4.2684-3.9738-6.1816-7.3589l-108.7671-176.1761c-7.8004-12.8047-17.0728-21.6356-27.6699-26.3454-10.5971-4.5627-27.2288-6.9176-49.8947-6.9176h-112.5935l-31.644,202.6687c-1.7661,10.8915-7.9477,16.3371-18.8392,16.3371h-623.46c-37.3841,0-68.7336-3.3851-93.7545-10.3027-25.1679-6.9175-44.743-18.2505-58.7254-33.7045-14.1293-15.6012-23.1073-35.765-26.787-60.6387-3.8266-25.0207-2.9436-55.1929,2.6494-90.8108l16.0427-102.1438h0l7.2119-46.0678c1.7661-10.8915,8.2421-16.3372,19.5751-16.3372h79.9194c10.8915,0,15.454,5.4457,13.6879,16.3372l-13.0991,84.6292h-.1472l-8.6838,55.4873c-2.9436,19.2809-3.9738,35.4708-2.7964,48.5699,1.1775,12.9521,4.857,23.4018,11.0386,31.0553,6.1816,7.6533,15.454,13.0991,27.5229,16.1899,12.069,3.238,27.6702,4.8569,46.9509,4.8569h522.0521l62.2576-398.8612c1.7662-10.8915,8.2422-16.3372,19.5752-16.3372h79.9192Z"></path></g></svg>