<svg xmlns="http://www.w3.org/2000/svg" id="Layer_1" viewBox="0 0 126.65 90.37"><path d="M86.93,78.48c-17.74,0-32.13-14.37-32.13-32.12s14.39-32.12,32.13-32.12c10.64,0,20.08,5.17,25.92,13.13l13.81-.02c-7.1-14.79-22.22-25-39.72-25-22.36,0-40.81,16.66-43.64,38.23H15.89c-1.09,0-.86-.43-.86-.43v-21.43c0-2.18,2.39-3.05,2.39-3.05h28.52c1.31,0,.44-.65.44-.65V.65l-.44-.65H12.19c-3.23,0-6.64,2.52-8.73,5.43C.9,8.99,0,13.05,0,13.05v75.09c0,1.52,2.18,2.18,2.18,2.18h12.41c1.96,0,.65-.22.65-.22v-37.21c0-1.1.64-.66.64-.66h27.41c2.87,21.53,21.31,38.14,43.63,38.14,17.4,0,32.44-9.97,39.59-24.61l-14.07.11c-5.87,7.66-15.12,12.61-25.53,12.61" fill="#000" stroke-width="0"></path><path d="M86.93,31.02c5.3,0,9.96,2.31,12.73,6.39l12.63-.04c-3.69-10.42-13.65-17.9-25.35-17.9-14.84,0-26.89,12.04-26.89,26.88s12.05,26.88,26.89,26.88c11.56,0,21.42-7.28,25.22-17.52l-13.15.11c-2.81,3.57-7.17,5.86-12.06,5.86-8.47,0-15.34-6.87-15.34-15.34s6.87-15.33,15.34-15.33" fill="#000" stroke-width="0"></path></svg>