<svg xmlns="http://www.w3.org/2000/svg" id="Layer_1" data-name="Layer 1" viewBox="0 0 253.1 189.3"><defs><style>      .cls-1 {        fill: #231f20;        stroke-width: 0px;      }    </style></defs><g id="Layer_1_Image" data-name="Layer 1 Image"><path class="cls-1" d="M123.8,187c-30.2,0-60.5,0-90.7,0-13,0-22.9-5.3-28.7-16.8-5.8-11.5-4.3-22.8,3.6-33.1,30.4-39.5,60.7-79.1,91.2-118.5,13.4-17.3,36.6-17.2,50,0,30.4,39.3,60.6,78.7,90.9,118.1,8,10.4,9.6,21.8,3.8,33.5-5.8,11.6-15.8,16.8-28.7,16.7-30.4-.1-60.8,0-91.2,0h0ZM124.1,168c29.7,0,59.5,0,89.2,0,5.8,0,10.7-1.1,13.5-6.6,2.8-5.5.3-9.9-3-14.3-29.8-38.7-59.6-77.4-89.4-116.1-6.5-8.4-14.3-8.4-20.7,0-30,39-59.9,78-89.9,116.9-3.2,4.2-5,8.5-2.5,13.4,2.6,5,7,6.7,12.5,6.6,30.1-.1,60.1,0,90.2,0h0Z"></path><path class="cls-1" d="M69.2,110.9c.6,4.1.8,8.3,1.7,12.4,5.5,25.9,31,44.7,57.2,42.3,28.5-2.6,50.1-24.9,50.7-52.5.1-5.5-2-8.4-6.2-8.5-4.2-.1-6.6,2.7-6.8,8.1-1.3,25.4-23.7,43.4-48.8,39.2-20.2-3.4-34.6-21.1-34.3-42.2.3-19.7,15.8-37.4,35.5-39.5,6.5-.7,13.2.8,19.8,1.7,4.7.7,7.9-.4,8.9-4.2,1.1-4.4-1-7-5.1-8.4-.8-.3-1.6-.6-2.4-.8-35-10-69.7,16-70.2,52.4h0ZM110.7,94.3c-6.5,0-9.1,3.5-7.9,8.6,2.1,8.4,4.3,16.9,6.6,25.2,2.2,8,9.4,9.8,15.4,4.1,4.9-4.8,9.8-9.7,14.6-14.5,9.5-9.5,19-18.9,28.4-28.4,3.1-3.2,3.4-7.2.8-9.8-2.6-2.7-6.5-2.6-9.9.3-.9.8-1.7,1.6-2.5,2.5-10.2,10.2-20.4,20.4-30.6,30.6-4.5,4.5-5.6,4.1-7.4-2.1-1.1-3.9-1.7-7.9-3.3-11.6-1-2.2-3.4-3.8-4.3-4.8h0Z"></path><path class="cls-1" d="M69.2,110.9c.4-36.4,35.1-62.4,70.2-52.3.8.2,1.6.6,2.4.8,4.1,1.3,6.2,4,5.1,8.4-1,3.8-4.2,4.9-8.9,4.2-6.6-.9-13.3-2.4-19.8-1.7-19.8,2.1-35.2,19.8-35.5,39.5-.3,21.1,14.1,38.8,34.3,42.2,25.1,4.2,47.5-13.9,48.8-39.2.3-5.4,2.6-8.2,6.8-8.1,4.3.1,6.4,3,6.2,8.5-.6,27.6-22.2,49.9-50.7,52.5-26.1,2.4-51.6-16.4-57.2-42.3-.9-4.1-1.2-8.3-1.7-12.4h0Z"></path><path class="cls-1" d="M110.7,94.3c.9,1,3.4,2.6,4.3,4.8,1.6,3.6,2.2,7.7,3.3,11.6,1.7,6.2,2.9,6.5,7.4,2.1,10.2-10.2,20.4-20.4,30.6-30.6.8-.8,1.6-1.7,2.5-2.5,3.4-2.9,7.3-3,9.9-.3,2.6,2.7,2.3,6.7-.8,9.8-9.4,9.5-18.9,19-28.4,28.4-4.9,4.9-9.7,9.8-14.6,14.5-6,5.8-13.2,3.9-15.4-4.1-2.4-8.4-4.6-16.8-6.6-25.2-1.3-5.2,1.4-8.7,7.9-8.6h0Z"></path></g></svg>