<svg xmlns="http://www.w3.org/2000/svg" id="Layer_1" viewBox="0 0 1263.2 559.21"><path d="M199.37,302.03l-51.45-32.71c-18.22-10.23-33.4,11.18-20.6,24.07l76.14,89.59c13.43,15.52,38.67,18.38,54.64-2.5l129.79-193.5c14.15-20.83-2.72-33.15-22.02-12.63l-120.57,121.74c-19.26,19.01-24.83,18.25-45.92,5.93" fill="#000" fill-rule="evenodd" stroke-width="0"></path><path d="M1059.63,268.04c7.26,8.22,14.4,14.36,21.45,18.45,7.05,4.05,14.06,6.09,21.07,6.09,6.51,0,11.89-1.75,16.07-5.26,4.21-3.51,6.3-7.93,6.3-13.31,0-5.93-1.79-10.52-5.43-13.73-3.63-3.21-11.81-6.55-24.58-9.97-17.53-4.72-29.96-10.89-37.22-18.45-7.26-7.59-10.89-17.99-10.89-31.17,0-17.15,5.72-31.09,17.19-41.9,11.43-10.81,26.33-16.19,44.57-16.19,9.89,0,19.24,1.34,28.09,3.96,8.85,2.67,17.23,6.68,25.16,12.06l-15.32,35.05c-5.55-4.72-11.23-8.26-17.07-10.68-5.8-2.38-11.56-3.59-17.28-3.59s-10.6,1.42-14.27,4.21c-3.67,2.8-5.51,6.43-5.51,10.81s1.59,8.05,4.8,10.77c3.21,2.67,9.43,5.26,18.61,7.68l2.21.63c19.91,5.38,33.01,11.27,39.27,17.74,4.26,4.38,7.47,9.68,9.68,15.82,2.21,6.18,3.3,12.98,3.3,20.49,0,18.99-6.22,34.26-18.7,45.78-12.48,11.56-29.13,17.32-49.91,17.32-12.48,0-23.83-2.13-34.09-6.34-10.22-4.26-20.07-10.89-29.5-19.95l21.99-36.31ZM850.88,325.88v-179.03h48.83v69.61h65.1v-69.61h48.83v179.03h-48.83v-72.86h-65.1v72.86h-48.83ZM822.84,264.45c0,8.89-1.75,17.36-5.22,25.33-3.46,8.01-8.47,15.19-15.11,21.53-6.68,6.34-14.15,11.18-22.41,14.44-8.3,3.25-17.07,4.88-26.37,4.88s-18.32-1.63-26.58-4.88c-8.3-3.26-15.69-8.1-22.2-14.44-6.55-6.22-11.52-13.31-14.94-21.33-3.42-8.05-5.13-16.57-5.13-25.54s1.71-17.53,5.09-25.54c3.38-7.97,8.35-15.15,14.98-21.53,6.43-6.26,13.77-11.02,22.08-14.19,8.26-3.17,17.15-4.76,26.71-4.76s18.45,1.59,26.67,4.76c8.22,3.17,15.61,7.93,22.12,14.19,6.72,6.47,11.77,13.69,15.19,21.66,3.42,7.97,5.13,16.48,5.13,25.41ZM779.52,264.45c0-9.18-2.34-16.44-6.97-21.74-4.63-5.3-10.93-7.97-18.82-7.97s-14.27,2.67-18.9,7.97c-4.59,5.3-6.89,12.56-6.89,21.74s2.29,16.48,6.84,21.74c4.55,5.26,10.89,7.89,18.95,7.89s14.27-2.63,18.9-7.89c4.59-5.26,6.89-12.52,6.89-21.74ZM584.55,231.48h9.01c10.52,0,18.2-1.79,23.04-5.38s7.26-9.22,7.26-16.86c0-8.97-2.25-15.36-6.76-19.16-4.55-3.8-12.1-5.68-22.79-5.68h-9.76v47.07ZM538.73,325.88v-179.03h51.08c19.95,0,33.89.92,41.73,2.75,7.85,1.84,14.65,4.92,20.37,9.22,6.43,4.88,11.39,11.14,14.86,18.7,3.46,7.6,5.17,15.94,5.17,25.08,0,13.85-3.42,25.12-10.22,33.8-6.84,8.68-16.78,14.44-29.84,17.28l48.83,72.2h-55.09l-41.06-70.11v70.11h-45.82Z" fill="#000" fill-rule="evenodd" stroke-width="0"></path><path d="M1091.76,366.8h52.75v13.88h-17.72v42.25h-17.32v-42.25h-17.72v-13.88ZM1022.58,366.8h16.19l21.05,30.99v-30.99h16.38v56.12h-16.38l-20.93-30.82v30.82h-16.3v-56.12ZM984.35,401.52l-6.13-20.17-6.15,20.17h12.28ZM988.02,413.67h-19.65l-2.82,9.25h-17.7l21.13-56.12h18.98l21.03,56.12h-18.16l-2.81-9.25ZM915.74,366.8h17.4v56.12h-17.4v-56.12ZM854.79,366.8h17.32v42.33h27.12v13.8h-44.45v-56.12ZM807.55,390.78h4.27c3.37,0,5.74-.59,7.09-1.75,1.36-1.16,2.04-2.65,2.04-4.47s-.59-3.25-1.78-4.48c-1.18-1.23-3.4-1.84-6.66-1.84h-4.96v12.54ZM790.14,366.8h28.85c6.28,0,10.99,1.49,14.12,4.48,3.12,2.99,4.69,7.25,4.69,12.78s-1.71,10.11-5.12,13.3c-3.41,3.2-8.62,4.79-15.62,4.79h-9.51v20.77h-17.4v-56.12ZM708.12,366.8h22.88l8.71,34.15,8.74-34.15h22.77v56.12h-14.19v-42.79l-10.95,42.79h-12.86l-10.92-42.79v42.79h-14.19v-56.12ZM650.15,394.94c0,5.66,1.06,9.73,3.16,12.2,2.12,2.47,4.99,3.71,8.62,3.71s6.62-1.21,8.66-3.63c2.05-2.43,3.07-6.77,3.07-13.05,0-5.28-1.07-9.13-3.2-11.56-2.14-2.44-5.03-3.66-8.69-3.66s-6.32,1.24-8.44,3.71c-2.13,2.47-3.19,6.57-3.19,12.28ZM632.83,394.9c0-9.16,2.55-16.29,7.66-21.39,5.11-5.11,12.21-7.66,21.33-7.66s16.54,2.51,21.6,7.51c5.06,5.02,7.58,12.05,7.58,21.07,0,6.56-1.1,11.93-3.31,16.12-2.21,4.19-5.41,7.46-9.58,9.8-4.18,2.34-9.38,3.5-15.61,3.5s-11.56-1.01-15.72-3.02c-4.14-2.02-7.51-5.21-10.09-9.58-2.57-4.35-3.87-9.81-3.87-16.37ZM603.49,399.95l15.21,4.58c-1.02,4.26-2.63,7.83-4.83,10.67-2.19,2.86-4.91,5.02-8.18,6.47-3.25,1.45-7.39,2.18-12.42,2.18-6.11,0-11.09-.89-14.97-2.65-3.87-1.78-7.2-4.9-10.01-9.35-2.81-4.46-4.22-10.18-4.22-17.13,0-9.28,2.47-16.41,7.41-21.4,4.95-4.98,11.94-7.47,20.98-7.47,7.07,0,12.63,1.42,16.68,4.29,4.04,2.86,7.05,7.25,9.01,13.18l-15.29,3.38c-.54-1.7-1.1-2.94-1.69-3.72-.98-1.32-2.17-2.34-3.57-3.04-1.41-.72-2.98-1.07-4.72-1.07-3.95,0-6.96,1.58-9.05,4.73-1.58,2.34-2.38,6.02-2.38,11.03,0,6.22.94,10.46,2.84,12.78,1.89,2.3,4.55,3.45,7.97,3.45s5.83-.93,7.53-2.8c1.7-1.86,2.93-4.56,3.7-8.1Z" fill="#000" fill-rule="evenodd" stroke-width="0"></path><path d="M1169.66,46.3H93.55c-12.57,0-24.48,5.02-33.35,13.9-8.87,8.88-13.9,20.78-13.9,33.35v372.11c0,12.57,5.02,24.48,13.9,33.35,8.88,8.87,20.78,13.9,33.35,13.9h1076.11c12.57,0,24.48-5.02,33.35-13.9,8.88-8.88,13.9-20.78,13.9-33.35V93.55c0-12.57-5.02-24.48-13.9-33.35-8.88-8.88-20.78-13.9-33.35-13.9M93.55,0h1076.11c24.87,0,48.51,9.89,66.09,27.46,17.57,17.57,27.46,41.22,27.46,66.09v372.11c0,24.87-9.89,48.51-27.46,66.09-17.57,17.57-41.22,27.46-66.09,27.46H93.55c-24.87,0-48.52-9.89-66.09-27.46C9.89,514.18,0,490.53,0,465.66V93.55c0-24.87,9.89-48.52,27.46-66.09C45.03,9.89,68.68,0,93.55,0Z" fill="#000" fill-rule="evenodd" stroke-width="0"></path><rect x="437.48" y="7.23" width="46.3" height="544.74" fill="#000" stroke-width="0"></rect></svg>